# xmcd
#
# Track frame offsets:
#	150
#	22769
#	42387
#	56388
#	78365
#	91155
#	101786
#	123565
#	142333
#	164484
#	181956
#	222411
#
# Disc length: 3264 seconds
#
# Revision: 1
# Processed by: cddbd v1.4PL0 Copyright (c) Steve Scherf et al.
# Submitted via: audiograbber 1.81.01
#
DISCID=a50cbe0c
DTITLE=Micheal Shaun Norton - Red Rum
DYEAR=2002
DGENRE=Blues
TTITLE0=Howlin' Wolf
TTITLE1=On The Run
TTITLE2=Keep Walkin
TTITLE3=One In The Sun
TTITLE4=Hoosier Daddy
TTITLE5=If I'm Lyin'
TTITLE6=Spooked
TTITLE7=Water And Wine
TTITLE8=Congo Square
TTITLE9=Dead Man Stomp
TTITLE10=Cry of The Banshee
TTITLE11=Data Track
EXTD=
EXTT0=
EXTT1=
EXTT2=
EXTT3=
EXTT4=
EXTT5=
EXTT6=
EXTT7=
EXTT8=
EXTT9=
EXTT10=
EXTT11=
PLAYORDER=
